<svg width="16" height="20" viewBox="0 0 16 20" fill="none" xmlns="http://www.w3.org/2000/svg">
<path d="M0 10.0008L15.2091 0C15.1513 1.66075 14.7483 3.08493 13.4134 4.0675L13.5615 4.17002C14.3024 4.67786 14.8609 5.34027 15.0995 6.26291C15.1981 6.65419 15.2173 7.06335 15.1558 7.46313C14.9647 8.84473 13.4237 9.7169 12.2621 9.08288C11.9801 8.94455 11.7422 8.72165 11.5775 8.44151C11.4127 8.16137 11.3283 7.83615 11.3346 7.50572C11.3319 7.4221 11.3454 7.33879 11.3743 7.26095C11.4031 7.18312 11.4466 7.11243 11.5022 7.05327C11.5578 6.99411 11.6242 6.94774 11.6973 6.91705C11.7705 6.88636 11.8487 6.87199 11.9273 6.87485C12.0845 6.87485 12.2352 6.94132 12.3464 7.05963C12.4575 7.17794 12.5199 7.3384 12.5199 7.50572C12.5199 7.54357 12.5199 7.58142 12.5199 7.61927C12.5065 7.74623 12.5324 7.87439 12.5936 7.98427C12.6549 8.09415 12.7481 8.17975 12.8592 8.22806C12.9723 8.27856 13.0972 8.29051 13.2169 8.26226C13.3366 8.23401 13.4451 8.16696 13.5275 8.07034C13.6834 7.90384 13.7994 7.69984 13.8657 7.47557C13.9319 7.2513 13.9465 7.01334 13.9082 6.7818C13.7986 5.86705 13.2845 5.3245 12.3658 5.17467C11.5213 5.03588 10.7775 5.27561 10.2026 5.97745C9.87992 6.36825 9.69356 6.86549 9.67494 7.38544C9.65631 7.90539 9.80657 8.41629 10.1004 8.83211C10.1167 8.85735 10.133 8.88258 10.176 8.94409L9.25586 8.83211C8.27501 8.71698 7.42158 8.95355 6.79336 9.83203C6.77365 9.85259 6.75799 9.87713 6.7473 9.90421C6.73661 9.93129 6.7311 9.96037 6.7311 9.98975C6.7311 10.0191 6.73661 10.0482 6.7473 10.0753C6.75799 10.1024 6.77365 10.1269 6.79336 10.1475C7.42158 11.0244 8.27501 11.2673 9.25438 11.1521L10.1582 11.0464C10.1435 11.0833 10.1267 11.1191 10.1078 11.1537C9.89089 11.4673 9.75175 11.8341 9.70326 12.2202C9.65476 12.6062 9.69847 12.999 9.83036 13.3623C9.96224 13.7256 10.178 14.0477 10.4578 14.2987C10.7375 14.5497 11.0722 14.7216 11.4309 14.7985C11.9671 14.9305 12.5295 14.8637 13.0252 14.6093C13.4145 14.3961 13.71 14.0292 13.8485 13.5871C13.9869 13.145 13.9573 12.6627 13.766 12.2435C13.6371 11.9722 13.4578 11.7577 13.157 11.7231C13.0834 11.7111 13.0083 11.7156 12.9364 11.7363C12.8645 11.757 12.7975 11.7935 12.7396 11.8434C12.6817 11.8932 12.6342 11.9554 12.6002 12.026C12.5662 12.0965 12.5465 12.1738 12.5422 12.253C12.5333 12.335 12.5422 12.4107 12.5422 12.499C12.541 12.5828 12.5242 12.6655 12.4927 12.7423C12.4612 12.8191 12.4156 12.8885 12.3587 12.9464C12.3017 13.0042 12.2345 13.0494 12.1609 13.0793C12.0873 13.1092 12.0089 13.1231 11.9302 13.1204C11.7749 13.1175 11.6268 13.0498 11.5179 12.9318C11.4089 12.8138 11.3479 12.655 11.348 12.4896C11.3503 12.1287 11.4557 11.7772 11.6502 11.4816C11.8447 11.1861 12.1191 10.9606 12.437 10.8351C13.6223 10.362 14.9795 11.2499 15.1647 12.57C15.3632 13.9894 14.532 15.1897 13.5675 15.8268C13.5215 15.8568 13.4756 15.8836 13.4089 15.9246C14.7424 16.904 15.1528 18.3329 15.2091 20L0 10.0008Z" fill="#906F45"/>
</svg>
