<?xml version="1.0" encoding="utf-8"?>
<!-- Generator: Adobe Illustrator 20.0.0, SVG Export Plug-In . SVG Version: 6.00 Build 0)  -->
<svg version="1.1" id="White" xmlns="http://www.w3.org/2000/svg" xmlns:xlink="http://www.w3.org/1999/xlink" x="0px" y="0px"
	 viewBox="0 0 410 319" style="enable-background:new 0 0 410 319;" xml:space="preserve">
<style type="text/css">
	.st0{fill:#d72027;}
</style>
<title>Brand_Logos_RGB</title>
<path class="st0" d="M227.3,64.2c-2.7,3.5-4.2,7.8-4.2,12.2c0,1.5,0,37,0,38.3c-0.2,2.9-1.3,5.6-3.1,7.9c-1,1-6.9,6.3-7.4,6.9
	l3.3,0.1c1.1-1,12.5-11.1,13.6-12.5c3.3-3.6,5.2-8.3,5.2-13.2c0-1.6,0-35.3,0-36.8c-0.1-3.7,1.3-7.4,3.9-10.1
	c1.4-1.5,5.8-5.2,6.6-6.1l-3.5-0.1C241,51.7,228.5,63,227.3,64.2L227.3,64.2L227.3,64.2z"/>
<path class="st0" d="M199.2,203.5l13.9,12.1h9.3c8.9,0,17.5-3.5,23.8-9.8c5.7-5.7,7.8-13.4,7.8-20.6v-19.9c-0.1-4.5-2-8.8-5.4-11.8
	c-0.6-0.6-4.7-4.5-4.7-4.5v15.3c0,0,4.5,4.6,5.3,5.5c4.1,4.4,4.1,12.4-9,25.1c-2.3,2.2-8.8,8.4-17.8,8.4L199.2,203.5L199.2,203.5z"
	/>
<path class="st0" d="M237.9,121.8c-1.5,1.6-3,5.6-3,9.2v7.5h7.6c3,0,6.9-2.7,7.7-4.1c0-0.1,0-7.5,0-7.5c1.1,1.6,2.5,3.1,4.1,4.3
	c0.8-1,7.8-9.4,13.6-9.5c9.7-0.1,7.5,12.2,3.6,16.1c-1.3,1.3-7,6.5-8.8,8.2c-4.6,4.4-12.5,2.3-12.5-9c0,0-8.4,8-9.7,9.1
	s-5.6,5.7-5.6,5.7v19.9c0,9.5-3.1,12.7-5.7,15.6c-1,1.1-11.7,10.9-13.2,12l-3.5,0.1c0,0,6.3-5.7,7.5-7c1.4-1.5,3.1-4.5,3.1-9.5
	c0-1.3-0.2-31.2-0.2-31.2h-48.8c-17,0-20.6-18.8-20.7-23.9c0-1.5,0-16.5,0-18.9c0-3.1-2-8.3-5.1-9.9h4.8c0.6,0.2,3.6,1.4,3.6,13
	c0,0-0.2,13.4-0.2,14.2c0,5.9,4.7,12.6,11.4,12.6l55.2-0.1c0-1.5,1.5-7.1,4.2-10.1c1.5-1.7,13.4-12.5,14.7-13.6h3.5
	c-0.5,0.5-6.3,5.6-7.5,7l0,0L237.9,121.8z M256,133.1c1.4,1.9,3,3.8,4.7,5.5c6,4.8,8.8-0.4,4.8-5.8
	C263.9,130.6,257.8,131.2,256,133.1L256,133.1z"/>
<path class="st0" d="M196.8,168.7c0,2.7-8.5,9.8-9,10.2c-0.6-2.9-2.8-6-9.1-12.4l9.3-9.3C194.3,163.5,196.8,164.9,196.8,168.7
	L196.8,168.7L196.8,168.7z"/>
<path class="st0" d="M213,61.8c1.9,1.9,5.9,6.9,3.5,9.4c-2.1,2.1-5.4,5.5-5.4,5.5c-0.2-1.2-3.3-4.2-3.3-4.2s0,9,0,10.1
	c-0.1,4.1-1.6,5.2-1.6,5.2s7.5,7.4,7.5,17c0,4.6,0,8.9,0,9.8c0.1,1.8-0.6,3.7-1.9,5c-0.7,0.8-7.6,7.8-8.7,8.7
	c-1.6,1.4-3.6,2.2-5.7,2.1h-25.9c-4.1,0-8.3-3.2-8.3-6.4c0-0.8,0.1-9.6,0.1-9.6c1.3,1.5,2.7,3.3,5.9,3.3c2.6,0,5.2-2,5.9-2.8
	s19.6-20.4,19.6-20.4s-8.8-8.2-14.6-12.1c-2.8-1.9-6.6,0.5-7.2,3c-1.8,7.8,0,19.6,0,19.6l-7.1-7.1c-2.9-2.9-2.8-9.4,0.7-12.8
	c0.5-0.6,5.8-6.4,12.4-6.4h10.3c6.9,0,14.5,6.9,14.5,6.9c0.6-0.7,1-1.5,1.1-2.4c0-3.6-0.1-13.1-0.1-13.1c-5.2-5.2-5.9-10.6-3.4-13.1
	c4.7-4.7,6.4-6.3,6.4-6.3S207.5,56.4,213,61.8L213,61.8L213,61.8z M180.5,113.8c-2.6,2.7-3,3.3-5.4,4.8h29.2c7.9,0,6.3-4.9,4.9-7.4
	c-2.9-5.1-12.1-14.5-12.1-14.5S181,113.3,180.5,113.8L180.5,113.8L180.5,113.8z"/>
<path class="st0" d="M147.2,140.4h-4.8c0,0,5.1,2.8,5.1,10.1v23.3c0,15.1,12.5,29.1,27.7,29.1h12.7c7.6,0,10.3-1.8,14.9-5.9
	c1.7-1.5,3.9-4,4.7-4.9c2.6-3,5.5-5.4,5.5-13.2v-7.6c0-6.6-3.8-9.3-5.7-11.2c-1.2-1.2-4.4-4.3-4.4-4.3v15.6c0,0,3.2,3.4,4.6,4.5
	c6.6,5.2,1.4,14.2-4.8,14.2c-1.2,0-26.1,0-27.9,0c-10.2,0.2-24.1-8.9-24.1-24.3v-12.6C150.8,140.4,147.2,140.4,147.2,140.4
	L147.2,140.4L147.2,140.4z"/>
<path class="st0" d="M177.8,168.8c0,2.7-8.5,9.8-9,10.2c-0.6-2.9-2.8-6-9.1-12.4l9.3-9.3C175.2,163.5,177.8,164.9,177.8,168.8
	L177.8,168.8L177.8,168.8z"/>
<path class="st0" d="M80.3,272.3H65.3c-4.7,0-4.3-3.9-4.8-7.2v-21.4c0,0,3.3-0.1,7-0.1c4.1,0,9.3-0.6,14.3,2.2
	c-2.6-5.5-8.2-8.9-14.3-8.7h-6.9v-6.9c0,0,0-6-1.5-7.7H69c8.5,0,15.1-0.1,22,4.4c0,0-1.3-11.3-17.8-11.3H41c0,0,5.6,4.8,5.4,14.5
	l0.2,39c0,9.8,3.9,10.1,3.9,10.1h31.7c7.2,0,9.7-5.1,9.7-7.9l0.1-3.7C92,267.6,89.7,272.3,80.3,272.3L80.3,272.3L80.3,272.3z"/>
<path class="st0" d="M164.7,269v-27.3c0-10.6-8.6-13.4-15.1-13.4c-8.5,0-11.1,7.1-12.2,9.6c-1.9-6.6-8.6-9.6-14-9.6
	c-10.3,0-12.9,9.8-12.9,9.8s-0.2-9.5-8.5-9.5h-8.1c0,0,4.7,1.9,4.7,10.1V269c0,10,4,10.2,4,10.2H116c-3.2-2.4-5.1-6.2-5.1-10.3V242
	c0.2-1.2,2.2-5.2,7.9-5.2c3.3,0,6.9,3.4,6.8,7.2v25c0,10.1,4,10.2,4,10.2H143c-3.2-2.5-5.1-6.2-5.1-10.3V242
	c1.3-3.9,5.5-6.1,9.5-4.8c3,1,5.1,3.7,5.2,6.9c0,0,0,22.8,0,24.9c0.1,10.2,4,10.1,4,10.1c7,0,13.4,0,13.4,0
	C166.7,276.7,164.8,273,164.7,269L164.7,269z"/>
<path class="st0" d="M188.1,269c0,4,1.9,7.8,5.1,10.2c0,0-6.4,0-13.4,0c0,0-4.1,0.1-4.1-10.1v-30.5c0-8-4.6-10.1-4.6-10.1h8.1
	c2.9,0,8.8,0,8.8,11.3v29l0,0l0,0L188.1,269z"/>
<path class="st0" d="M229.3,232.4c0,0-1.3-3.6-6.8-3.6c-8.4,0-10.4,10-10.4,10c-0.7-7.9-2.8-10.2-8.7-10.2h-8.1
	c0,0,4.7,1.9,4.7,10.1V269c0,10,4,10.2,4,10.2h13.4c-3.2-2.4-5.1-6.2-5.1-10.2v-24.9c0.3-2.1,1.5-4,3.3-5.1c4.5-3,10.4-2.1,13.9,2
	L229.3,232.4L229.3,232.4L229.3,232.4z"/>
<path class="st0" d="M291.6,234.2c2.8,0,5.5,0.7,7.9,2v-7.6h-11.2V217c-2.4,3.8-5.5,7.2-9,10.1c-3.8,3.1-11.8,7-11.8,7l8.5,0.1v35.2
	c0,9.8,4.1,9.8,4.1,9.8c7.3,0,13.3,0,13.3,0c-3.2-2.3-5.1-6-5.2-9.9v-35.1C291.8,234.2,289.4,234.2,291.6,234.2L291.6,234.2
	L291.6,234.2z"/>
<path class="st0" d="M332.2,249.5c-7.5,7.8-13.4,6.6-18.1,12.4c0,0,0.8,7.8,6.7,10.5c2,0.9,10.3,3.9,15.6-5.3v8.2c0,0-3.4,4-14.3,4
	c-13.1,0-22.1-10.3-22.1-24.3c0-13.8,7.3-26.5,21.2-26.6C334.7,228.2,342.1,239.2,332.2,249.5L332.2,249.5L332.2,249.5z M324,246.3
	c2.2-4.1,4-14.5-3.6-13.9c-8.8,0.7-7.1,24-7.1,24C316.2,253.2,320.6,252.5,324,246.3L324,246.3L324,246.3z"/>
<path class="st0" d="M181.9,224.5c3.4-0.1,6-2.9,6-6.2c-0.1-3.4-2.9-6-6.2-6c-3.3,0.1-6,2.8-6,6.1
	C175.7,221.8,178.5,224.5,181.9,224.5L181.9,224.5z"/>
<path class="st0" d="M243.2,273.4c-3,0-5.2-3.2-5.2-6.4c0-12.6,10.3-14.4,13.1-17.7v21.3C249.8,271.6,248.6,273.4,243.2,273.4
	L243.2,273.4L243.2,273.4z M251.1,244.4c-3.1,5.4-27.3,6.6-23.6,25.3c1.5,7.4,6.4,9.6,12.6,9.6c6,0,9.7-3.1,11.2-6.1
	c0.9,5.6,3.8,6,3.8,6c7,0,13.4,0,13.4,0c-3.2-2.4-5.2-6.1-5.2-10.1v-28.5c0-6.8-7.5-12.1-15.5-12.1c-4.5-0.1-8.8,1.2-12.5,3.7v8.8
	c0,0,2.8-7,9.7-7c6.8,0,7.3,3.4,7.3,5.1C252.4,240.9,252.1,242.8,251.1,244.4L251.1,244.4L251.1,244.4z"/>
<path class="st0" d="M361.8,265.4c0.1,3.6-3.1,8.3-9.9,8.3c-7,0-9.8-7.1-9.8-7.1v9c3.8,2.4,8.2,3.6,12.7,3.6
	c9.1,0,18.4-6.9,18.2-16.6c-0.1-3.2-1.2-6.3-3.1-8.8c-3.1-4.1-8.7-7-13.1-9.7c-2.5-1.5-3.8-4.3-3.8-5.2c-0.1-1.7,0.8-5.1,7.5-5.1
	c6.6,0,9.5,7,9.5,7v-8.5c-3.7-2.6-8.2-4-12.8-4c-8,0-15.3,5.3-15.1,12.1c0.1,6,2.6,9.8,7.5,13.5c2.2,1.6,4.5,3,6.9,4.3
	C360.3,260.3,361.7,262.9,361.8,265.4L361.8,265.4L361.8,265.4z"/>
</svg>
