<?xml version="1.0" encoding="utf-8"?>
<!-- Generator: Adobe Illustrator 19.2.1, SVG Export Plug-In . SVG Version: 6.00 Build 0)  -->
<svg version="1.1" id="layer" xmlns="http://www.w3.org/2000/svg" xmlns:xlink="http://www.w3.org/1999/xlink" x="0px" y="0px"
	 viewBox="0 0 652 652" style="enable-background:new 0 0 652 652;" xml:space="preserve">
<style type="text/css">
	.st0{fill:#FF8200;}
	.st1{fill:#006496;}
</style>
<g id="C1.0_Navigation">
	<g id="C2.5.1_Interactions_Desktop-Phablet" transform="translate(-139.000000, -356.000000)">
		<g id="a.-Logo" transform="translate(139.000000, 356.000000)">
			<path id="Fill-5" class="st0" d="M171.9,291v54.7c0,5-2.2,12.6-22.3,12.6s-22.3-7.5-22.3-12.6V291h-11.4v55.3
				c0,13.5,11.1,19.5,31.8,19.5c10.6,0,18.3-1.8,24.2-3.4v24.7H183l-0.1-96.1H171.9L171.9,291z M68.1,264.9
				c-12.1,0-29.9,2.5-29.9,14.9V291H25.1v6.4h13.1v66.7h10.9v-66.7h17.2l0-6.4H49.1v-9.8c0-9.5,11-11,19-11c13.2,0,19.7,1,19.7,15.6
				l0,78.3h10.9v-97.4H87.9C81.8,266.7,78.8,264.9,68.1,264.9L68.1,264.9z M613.1,298c-6.6,0-12,5.4-12,12.1c0,6.7,5.4,12.2,12,12.2
				c6.7,0,12-5.4,12-12.2C625.1,303.4,619.8,298,613.1,298L613.1,298z"/>
			<path id="Fill-6" class="st1" d="M525.7,307.5c8.5-1,16.1-1.5,20.9-1.5c-2.6-10.3-14.7-14.3-34.6-14.3c-17.2,0-32.6,6-32.6,6
				v14.3c0,0,10.6-8.6,32.9-8.6C519.6,303.4,523.6,304.7,525.7,307.5L525.7,307.5z M260.2,343.4c-0.6,7.9-9.1,12.2-17.3,12.2
				c-17.8,0-20.3-7.8-20.3-25.6c0-17.8,3.5-25.6,19.4-25.6c10.3,0,17.5,4.3,18.2,12.2c0.5,6.4,0.8,9.7,0.8,13.4
				C260.9,333.8,260.7,337.4,260.2,343.4L260.2,343.4z M260.9,296.1c-7.3-2.9-12.9-4.4-22-4.4c-27.7,0-36.2,10.6-36.2,38.3
				c0,27.6,12.4,38.3,40.2,38.3c16.9,0,29.2-6.4,37.9-6.4v-92.8h-19.9V296.1L260.9,296.1z M583.8,293.4l-19.9,0v12h19.9V293.4
				L583.8,293.4z M528.1,343.3c0,10.4-9.7,13.1-16.3,13.1c-11.3,0-17.1-3.4-17.1-10.8c0-12.5,15.8-18.9,33.4-20V343.3L528.1,343.3z
				 M588,312.6l-5.8,0c-80.6,0-106.8,15.1-106.8,32.4c0,16.1,13.7,23.1,35.8,23.1c14.3,0,28.7-6.2,36.3-6.2V323
				c9.4-1.2,16.5-1.4,16.5-1.4v45h19.9v-33.9C583.9,320.6,588,312.6,588,312.6L588,312.6z M424.8,355.6c-8.2,0-16.7-4.3-17.3-12.2
				c-0.5-6-0.7-9.7-0.7-13.4c0-3.8,0.3-7,0.7-13.4c0.6-7.9,7.8-12.2,18.2-12.2c15.9,0,19.4,7.8,19.4,25.6
				C445.1,347.8,442.6,355.6,424.8,355.6L424.8,355.6z M428.8,291.7c-9.1,0-14.7,1.5-22,4.4v-27h-19.9v92.8c8.7,0,21,6.4,37.9,6.4
				c27.7,0,40.2-10.7,40.2-38.3C465,302.3,456.5,291.7,428.8,291.7L428.8,291.7z M350.6,343.9c0,5-1.6,12.6-16.5,12.6
				c-14.9,0-16.5-7.5-16.5-12.6v-50.4h-19.9v55.3c0,13.5,13.8,19.5,34.5,19.5c18.3,0,30.1-5.6,35.9-6.3l2.5-0.3v-68.3h-19.9V343.9
				L350.6,343.9z"/>
		</g>
	</g>
</g>
</svg>
