<?xml version="1.0" encoding="UTF-8"?>
<!DOCTYPE svg PUBLIC "-//W3C//DTD SVG 1.1//EN" "http://www.w3.org/Graphics/SVG/1.1/DTD/svg11.dtd">
<svg xmlns="http://www.w3.org/2000/svg" width="2140px" height="510px" version="1.1" xmlns:xlink="http://www.w3.org/1999/xlink" viewBox="0 0 3210 765">
	<title>Logo of Uzbekistan Airways</title>
	<circle cx="350" cy="353" r="328" style="fill:#FCDD53;stroke:#E42A2B;stroke-width:30"/>
	<path fill="#478C3E" d="M571 430c-11,13 -21,20 -39,23 -66,0 -132,0 -198,0 -10,-5 -11,-12 0,-17 37,0 75,0 112,0 10,0 19,-3 26,-12 33,-44 71,-86 100,-134 -13,12 -21,19 -40,22 -46,0 -92,0 -137,0 -14,0 -25,5 -34,17 -27,35 -55,69 -82,104 -71,85 -120,-102 -24,-72 -13,-17 -27,-33 -40,-50 -10,-10 -25,-11 -35,0 -60,76 -61,193 64,204h266c20,-29 41,-57 61,-85zm-41 -238c-9,7 -15,10 -29,10 h-121c-12,0 -27,5 -35,15l-77 98 22 28c9,-11 18,-22 27,-33 9,-10 19,-14 33,-14 h75 c38,0 87,-82 105,-104z"/>
	<g style="fill:#0F477F;fill-rule:evenodd">
		<path d="M2998 258l-46 168 -66 0 76 -276 67 0 55 167 46 -167 66 0 -77 276 -66 0 -55 -168zm-266 70l65 0 -4 -99 -61 99zm115 -178l22 276 -69 0 -3 -51 -91 0 -31 51 -69 0 174 -276 67 0zm-302 54l-79 0 15 -54 223 0 -15 54 -78 0 -62 222 -65 0 61 -222zm-278 133c0,31 16,52 51,46 49,-10 45,-70 -13,-76 -49,-6 -74,-46 -62,-93 21,-45 56,-64 107,-70 h1 c38,-8 95,2 101,50 1,8 3,24 -2,32 h-62 c0,-14 -3,-27 -17,-31 -46,-13 -104,41 -7,66 25,6 59,15 66,43 10,49 -19,95 -58,117 -36,15 -88,16 -125,9 -46,-16 -55,-45 -47,-93zm-46 -187c-26,92 -51,184 -76,276l-66 0 76 -276 66 0zm-306 108l127 -108 80 0 -136 114 69 162 -81 0 -45 -117 -36 30 -25 87 -65 0 77 -276 65 0 -30 108zm-252 2l130 0 -14 50 -129 0 -17 62 148 0 -14 54 -215 0 76 -276 212 0 -15 54 -146 0 -16 56zm-248 -59l-16 59 50 0c18,0 35,-8 42,-29 4,-13 1,-23 -12,-28 -17,-5 -45,-2 -64,-2zm-30 107l-18 68c37,0 90,11 104,-35 4,-24 -13,-33 -34,-33zm114 -158c34,0 71,13 64,54 -5,32 -33,62 -62,73 v2 c42,0 42,55 32,83 -15,44 -62,64 -106,64 h-140l76 -276zm-276 55l-126 0 16 -55 206 0 -13 51 -182 170 143 0 -14 55 -224 0 16 -58 178 -163zm-311 -55c-15,54 -31,108 -46,161 -6,28 -5,75 36,69 33,-4 59,-38 66,-69 14,-53 28,-107 43,-161 h65 c-20,73 -31,172 -78,236 -33,32 -63,46 -112,46 -79,0 -98,-36 -88,-111 15,-57 31,-114 47,-171z"/>
		<path id="a_small" d="M2902 724m-602 -87c-18,0 -49,7 -55,26 -4,8 3,14 10,17 30,0 35,-21 45,-43zm-77 -31c0,-32 42,-44 69,-48 26,0 45,-1 58,22 1,7 2,11 1,18 -5,25 -31,80 -21,103l0 1 -3 0 -41 0 0 -12c-89,64 -121,-54 -29,-66 8,-2 52,-6 52,-23 0,-28 -33,-17 -43,-2 0,2 -2,6 -2,7l-41 0z"/>
		<use xlink:href="#a_small" x="554"/>
		<path d="M2657 616l-45 86 -44 0 -4 -140 45 0 -2 86 44 -86 41 0 -4 86 45 -86 47 0 -82 140 -45 0 4 -86zm-97 -57l-9 33 -2 0c-14,0 -17,-1 -30,4 -19,11 -28,26 -34,49l-15 57 -50 0 46 -140 40 0 -6 19c17,-16 38,-22 60,-22zm-163 -17l8 -33 44 0 -9 33 -43 0zm37 20l-38 140 -43 0 39 -140 42 0zm468 162c28,0 26,0 41,-24l-21 -138 51 0 6 87 46 -87 45 0 -86 148c-23,37 -44,42 -90,42l0 0 8 -28zm148 -68l41 0c-2,9 -2,13 4,20 15,12 32,2 40,-12 4,-25 -45,-17 -62,-34 -4,-5 -6,-8 -6,-15 0,-14 4,-27 13,-38 6,-6 13,-10 21,-13 13,-5 26,-6 39,-6 9,0 16,0 25,1 25,4 25,22 25,41l-3 0 -36 0 1 -4c0,-13 -10,-13 -19,-13 -12,0 -21,5 -23,18 0,6 3,9 8,11 36,6 74,13 59,53 -7,17 -20,29 -37,36 -11,4 -25,5 -37,5 -10,0 -20,0 -30,-3 -9,-4 -15,-8 -21,-15 -6,-12 -7,-18 -5,-32l3 0z"/>
	</g>
</svg>