<svg width="51" height="51" viewBox="0 0 51 51" fill="none" xmlns="http://www.w3.org/2000/svg">
<path d="M16.1526 0.671603C16.1526 0.671603 18.9128 0.452288 20.2038 1.1541C21.4177 1.81398 34.0489 18.3382 36.0715 21.0025C36.3261 21.3356 36.7247 21.5555 37.176 21.5722C44.6085 21.8403 50.5777 23.0175 50.9666 25.1034C50.9895 25.171 51.0006 25.2501 51 25.329C51.0006 25.4078 50.9894 25.487 50.9665 25.5546C50.5777 27.6405 44.6085 28.8177 37.1761 29.0858C36.7247 29.1025 36.3261 29.3224 36.0715 29.6555C34.049 32.3198 21.4178 48.844 20.2038 49.5039C18.9128 50.2057 16.1526 49.9864 16.1526 49.9864C16.1526 49.9864 22.2072 37.1345 23.0531 34.3711C23.7654 32.0025 23.988 29.7216 23.8989 28.8005C17.3101 28.4496 11.3445 27.9232 8.58435 27.4407L3.28658 33.5816C3.28658 33.5816 3.06398 33.8447 2.57427 33.8886C2.12908 33.9325 0.259277 33.9325 0.259277 33.9325L2.44071 26.1248C2.44071 26.1248 1.72841 25.8617 1.2387 25.6862C0.838026 25.5546 0.793402 25.3729 0.793402 25.329C0.793402 25.2851 0.838036 25.1034 1.23871 24.9718C1.72842 24.7963 2.44072 24.5331 2.44072 24.5331L0.259288 16.7255C0.259288 16.7255 2.12909 16.7255 2.57428 16.7694C3.06399 16.8132 3.28659 17.0764 3.28659 17.0764L8.58437 23.2172C11.3446 22.7348 17.3101 22.2084 23.8989 21.8575C23.9879 20.9364 23.7654 18.6555 23.053 16.2869C22.2072 13.5235 16.1526 0.671603 16.1526 0.671603Z" fill="#55BB06"/>
</svg>
